<svg xmlns="http://www.w3.org/2000/svg" width="51" height="51" viewBox="0 0 51 51"><g><g><path fill="#13426c" d="M25 0c13.807 0 25 11.193 25 25S38.807 50 25 50 0 38.807 0 25 11.193 0 25 0z"/><path fill="none" stroke="#13426c" stroke-linecap="round" stroke-linejoin="round" stroke-miterlimit="50" d="M25 0c13.807 0 25 11.193 25 25S38.807 50 25 50 0 38.807 0 25 11.193 0 25 0z"/></g><g><path fill="#fff" d="M19.733 14.729l1.414-1.415L31.81 23.1l.064-.058 1.414 1.414-1.414 1.415-.064-.059L21.147 35.6l-1.414-1.415 10.6-9.728z"/></g></g></svg>