<svg xmlns="http://www.w3.org/2000/svg" width="16" height="21" viewBox="0 0 16 21"><g><g><path fill="#fe3f3f" d="M16 9.935v9.605c0 .804-.51 1.46-1.135 1.46H1.135C.51 21 0 20.344 0 19.54V9.935c0-.805.51-1.454 1.135-1.454h.406V6.566C1.54 3.024 4.327.065 7.81 0h.38c3.483.064 6.27 3.023 6.27 6.565V8.48h.405c.625 0 1.135.65 1.135 1.454zm-6.208 3.551c0-.92-.705-1.712-1.602-1.748a4.488 4.488 0 0 0-.38 0c-.897.036-1.602.828-1.602 1.748 0 .485.186.925.506 1.242v2.902c0 .333.276.614.605.614h1.362c.33 0 .605-.281.605-.614v-2.902c.32-.317.506-.757.506-1.242zm1.994-5.005V6.566c0-2.11-1.7-3.854-3.786-3.854-2.086 0-3.786 1.745-3.786 3.854V8.48z"/></g></g></svg>