<svg xmlns="http://www.w3.org/2000/svg" width="40" height="28" viewBox="0 0 40 28"><g><g><path fill="#80bc34" d="M1.403 18.653V1.703A1.71 1.71 0 0 1 3.116-.005h17.01a1.71 1.71 0 0 1 1.712 1.708v16.95a.57.57 0 0 1-.57.567H1.973a.57.57 0 0 1-.57-.567zM15.14 24.46a3.545 3.545 0 0 1-3.551 3.537 3.545 3.545 0 0 1-3.552-3.537c0-1.954 1.59-3.54 3.552-3.54a3.546 3.546 0 0 1 3.551 3.54zm-1.776 0c0-.977-.795-1.77-1.775-1.77-.981 0-1.776.793-1.776 1.77a1.77 1.77 0 0 0 1.776 1.767 1.77 1.77 0 0 0 1.775-1.767zm-6.413-.675H.57a.57.57 0 0 1-.57-.57V21.49a.57.57 0 0 1 .57-.57H8.53a4.67 4.67 0 0 0-1.58 2.865zm26.771.675a3.545 3.545 0 0 1-3.551 3.537 3.545 3.545 0 0 1-3.552-3.537c0-1.954 1.59-3.54 3.552-3.54a3.546 3.546 0 0 1 3.551 3.54zm-1.776 0c0-.977-.795-1.77-1.775-1.77-.981 0-1.776.793-1.776 1.77a1.77 1.77 0 0 0 1.776 1.767 1.77 1.77 0 0 0 1.775-1.767zM40 21.49v1.724a.57.57 0 0 1-.571.57h-4.621a4.69 4.69 0 0 0-9.277 0h-9.305a4.672 4.672 0 0 0-1.58-2.863h8.824V4.66c0-.628.511-1.136 1.141-1.136H30a4.57 4.57 0 0 1 3.784 2.004l3.474 5.124c.51.75.782 1.638.782 2.544v7.725h1.39a.57.57 0 0 1 .57.568zm-5.79-10.706L31.432 6.85a.573.573 0 0 0-.467-.241h-4.333a.57.57 0 0 0-.57.57v3.93c0 .314.254.57.57.57h7.11c.463 0 .734-.52.468-.895z"/></g></g></svg>