<svg xmlns="http://www.w3.org/2000/svg" width="15" height="19" viewBox="0 0 15 19"><g><g><path fill="#915169" d="M4.867 9.03C3.462 7.321 3.696 4.395 3.721 4.115 3.813 2.005 4.747 1 5.513.533a3.837 3.837 0 0 1 1.963-.541h.062c.737.016 1.398.205 1.963.556.759.467 1.679 1.47 1.77 3.567.025.28.259 3.206-1.146 4.915-.639.775-1.503 1.183-2.572 1.201H7.436c-1.07-.018-1.934-.426-2.569-1.2zm.734-.704c.456.558 1.072.834 1.875.842h.036c.807-.008 1.42-.284 1.88-.842 1.16-1.409.904-4.085.9-4.113-.003-.01-.003-.02-.003-.031-.113-2.667-1.788-3.1-2.773-3.125h-.044c-.795 0-2.652.303-2.773 3.125 0 .006-.003.017-.003.031-.004.024-.252 2.711.905 4.113zm9.216 8.537a.507.507 0 0 1-.19.248c-.109.076-2.732 1.88-7.122 1.88s-7.013-1.8-7.122-1.88a.486.486 0 0 1-.19-.248c-.193-.525-.19-1.58-.186-1.781v-.013c.004-.03.004-.063.004-.101.021-.772.069-2.593 1.653-3.18.01-.003.021-.009.036-.012 1.653-.455 3.014-1.476 3.028-1.487a.47.47 0 0 1 .687.13.557.557 0 0 1-.121.739c-.062.044-1.514 1.138-3.331 1.64-.85.327-.945 1.312-.97 2.204 0 .037-.005.067-.005.1-.007.354.019.9.077 1.215.595.36 2.926 1.617 6.437 1.617 3.524 0 5.841-1.251 6.432-1.613.059-.316.08-.862.077-1.215-.004-.032-.004-.065-.004-.1-.025-.896-.12-1.876-.97-2.204-1.818-.504-3.27-1.594-3.332-1.64a.555.555 0 0 1-.12-.739c.157-.24.463-.3.686-.131.014.014 1.383 1.034 3.028 1.487.011.006.026.01.037.015 1.583.581 1.63 2.402 1.653 3.178 0 .04.003.07.003.102v.012c.004.202.008 1.255-.175 1.777z"/></g></g></svg>